<svg xmlns="http://www.w3.org/2000/svg" viewBox="0 0 200 233" enable-background="new 0 0 200 233"><path fill="#fff" fill-rule="evenodd" clip-rule="evenodd" d="M194.4 77.8c-12-15-28.8-23.6-44.7-23.6-21 0-29.9 10-44.5 10-15 0-26.5-10-44.6-10-17.9 0-36.8 10.9-48.9 29.4-16.9 26.1-14.1 75.2 13.4 117.1 9.8 15 22.9 31.8 40.1 31.9 15.2.1 19.6-9.7 40.2-9.9 20.7-.1 24.6 10 39.8 9.8 17.1-.2 31-18.8 40.8-33.8 7-10.7 9.7-16.1 15.1-28.3-39.6-14.8-46-71-6.7-92.6zm-60.7-40.3c7.6-9.8 13.4-23.7 11.3-37.8-12.5.9-27.1 8.8-35.6 19.2-7.7 9.4-14.1 23.3-11.6 36.9 13.6.3 27.7-7.8 35.9-18.3z"/></svg>